<?xml version="1.0" encoding="utf-8" standalone="no"?>
<!DOCTYPE svg PUBLIC "-//W3C//DTD SVG 1.1//EN"
  "http://www.w3.org/Graphics/SVG/1.1/DTD/svg11.dtd">
<svg height="100.314206pt" version="1.1" viewBox="0 0 130.054824 100.314206" width="130.054824pt" xmlns="http://www.w3.org/2000/svg" xmlns:xlink="http://www.w3.org/1999/xlink">
 <metadata>
  <rdf:RDF xmlns:cc="http://creativecommons.org/ns#" xmlns:dc="http://purl.org/dc/elements/1.1/" xmlns:rdf="http://www.w3.org/1999/02/22-rdf-syntax-ns#">
   <cc:Work>
    <dc:type rdf:resource="http://purl.org/dc/dcmitype/StillImage"/>
    <dc:date>2023-02-20T08:02:30.896700</dc:date>
    <dc:format>image/svg+xml</dc:format>
    <dc:creator>
     <cc:Agent>
      <dc:title>Matplotlib v3.4.2, https://matplotlib.org/</dc:title>
     </cc:Agent>
    </dc:creator>
   </cc:Work>
  </rdf:RDF>
 </metadata>
 <defs>
  <style type="text/css">*{stroke-linecap:butt;stroke-linejoin:round;}</style>
 </defs>
 <g id="figure_1">
  <g id="patch_1">
   <path d="M 0 100.314206 
L 130.054824 100.314206 
L 130.054824 0 
L 0 0 
z
" style="fill:#ffffff;"/>
  </g>
  <g id="axes_1">
   <g id="patch_2">
    <path d="M 14.854824 86.76 
L 126.454824 86.76 
L 126.454824 3.6 
L 14.854824 3.6 
z
" style="fill:#ffffff;"/>
   </g>
   <g id="matplotlib.axis_1">
    <g id="xtick_1">
     <g id="line2d_1">
      <defs>
       <path d="M 0 0 
L 0 -3 
" id="m7506c50e27" style="stroke:#000000;stroke-width:0.5;"/>
      </defs>
      <g>
       <use style="stroke:#000000;stroke-width:0.5;" x="40.218461" xlink:href="#m7506c50e27" y="86.76"/>
      </g>
     </g>
     <g id="line2d_2">
      <defs>
       <path d="M 0 0 
L 0 3 
" id="m1465c7650d" style="stroke:#000000;stroke-width:0.5;"/>
      </defs>
      <g>
       <use style="stroke:#000000;stroke-width:0.5;" x="40.218461" xlink:href="#m1465c7650d" y="3.6"/>
      </g>
     </g>
     <g id="text_1">
      <!-- $\mathdefault{20}$ -->
      <g transform="translate(36.341049 95.228824)scale(0.07 -0.07)">
       <defs>
        <path d="M 3238 558 
L 851 558 
C 909 930 1114 1167 1670 1494 
L 2310 1840 
C 2944 2186 3270 2653 3270 3211 
C 3270 3589 3117 3942 2848 4185 
C 2579 4429 2246 4544 1818 4544 
C 1242 4544 813 4339 563 3955 
C 403 3711 333 3429 320 2967 
L 883 2967 
C 902 3275 941 3461 1018 3608 
C 1165 3884 1459 4051 1798 4051 
C 2310 4051 2694 3685 2694 3198 
C 2694 2839 2483 2531 2080 2301 
L 1491 1968 
C 544 1430 269 1000 218 0 
L 3238 0 
L 3238 558 
z
" id="NimbusSanL-Regu-32" transform="scale(0.015625)"/>
        <path d="M 1760 4544 
C 1338 4544 954 4360 717 4046 
C 422 3651 275 3044 275 2208 
C 275 683 787 -128 1760 -128 
C 2720 -128 3245 683 3245 2170 
C 3245 3050 3104 3638 2803 4046 
C 2566 4366 2189 4544 1760 4544 
z
M 1760 4044 
C 2368 4044 2669 3432 2669 2221 
C 2669 939 2374 340 1747 340 
C 1152 340 851 965 851 2202 
C 851 3438 1152 4044 1760 4044 
z
" id="NimbusSanL-Regu-30" transform="scale(0.015625)"/>
       </defs>
       <use transform="scale(0.996264)" xlink:href="#NimbusSanL-Regu-32"/>
       <use transform="translate(55.391677 0)scale(0.996264)" xlink:href="#NimbusSanL-Regu-30"/>
      </g>
     </g>
    </g>
    <g id="xtick_2">
     <g id="line2d_3">
      <g>
       <use style="stroke:#000000;stroke-width:0.5;" x="80.800279" xlink:href="#m7506c50e27" y="86.76"/>
      </g>
     </g>
     <g id="line2d_4">
      <g>
       <use style="stroke:#000000;stroke-width:0.5;" x="80.800279" xlink:href="#m1465c7650d" y="3.6"/>
      </g>
     </g>
     <g id="text_2">
      <!-- $\mathdefault{40}$ -->
      <g transform="translate(76.922867 95.228824)scale(0.07 -0.07)">
       <defs>
        <path d="M 2093 1088 
L 2093 0 
L 2656 0 
L 2656 1088 
L 3328 1088 
L 3328 1594 
L 2656 1594 
L 2656 4545 
L 2240 4545 
L 179 1684 
L 179 1088 
L 2093 1088 
z
M 2093 1594 
L 672 1594 
L 2093 3583 
L 2093 1594 
z
" id="NimbusSanL-Regu-34" transform="scale(0.015625)"/>
       </defs>
       <use transform="scale(0.996264)" xlink:href="#NimbusSanL-Regu-34"/>
       <use transform="translate(55.391677 0)scale(0.996264)" xlink:href="#NimbusSanL-Regu-30"/>
      </g>
     </g>
    </g>
    <g id="xtick_3">
     <g id="line2d_5">
      <g>
       <use style="stroke:#000000;stroke-width:0.5;" x="121.382097" xlink:href="#m7506c50e27" y="86.76"/>
      </g>
     </g>
     <g id="line2d_6">
      <g>
       <use style="stroke:#000000;stroke-width:0.5;" x="121.382097" xlink:href="#m1465c7650d" y="3.6"/>
      </g>
     </g>
     <g id="text_3">
      <!-- $\mathdefault{60}$ -->
      <g transform="translate(117.504685 95.228824)scale(0.07 -0.07)">
       <defs>
        <path d="M 3187 3382 
C 3078 4111 2592 4544 1901 4544 
C 1402 4544 954 4302 685 3900 
C 403 3460 275 2904 275 2081 
C 275 1321 390 836 659 434 
C 902 69 1299 -128 1798 -128 
C 2662 -128 3283 518 3283 1415 
C 3283 2268 2707 2868 1894 2868 
C 1446 2868 1094 2695 851 2362 
C 858 3444 1216 4044 1862 4044 
C 2259 4044 2534 3803 2624 3382 
L 3187 3382 
z
M 1824 2368 
C 2368 2368 2707 1986 2707 1370 
C 2707 793 2323 372 1805 372 
C 1280 372 883 813 883 1402 
C 883 1973 1267 2368 1824 2368 
z
" id="NimbusSanL-Regu-36" transform="scale(0.015625)"/>
       </defs>
       <use transform="scale(0.996264)" xlink:href="#NimbusSanL-Regu-36"/>
       <use transform="translate(55.391677 0)scale(0.996264)" xlink:href="#NimbusSanL-Regu-30"/>
      </g>
     </g>
    </g>
    <g id="xtick_4">
     <g id="line2d_7">
      <defs>
       <path d="M 0 0 
L 0 -1.5 
" id="m9dd08c99c4" style="stroke:#000000;stroke-width:0.5;"/>
      </defs>
      <g>
       <use style="stroke:#000000;stroke-width:0.5;" x="19.927552" xlink:href="#m9dd08c99c4" y="86.76"/>
      </g>
     </g>
     <g id="line2d_8">
      <defs>
       <path d="M 0 0 
L 0 1.5 
" id="md1a030bfc4" style="stroke:#000000;stroke-width:0.5;"/>
      </defs>
      <g>
       <use style="stroke:#000000;stroke-width:0.5;" x="19.927552" xlink:href="#md1a030bfc4" y="3.6"/>
      </g>
     </g>
    </g>
    <g id="xtick_5">
     <g id="line2d_9">
      <g>
       <use style="stroke:#000000;stroke-width:0.5;" x="30.073006" xlink:href="#m9dd08c99c4" y="86.76"/>
      </g>
     </g>
     <g id="line2d_10">
      <g>
       <use style="stroke:#000000;stroke-width:0.5;" x="30.073006" xlink:href="#md1a030bfc4" y="3.6"/>
      </g>
     </g>
    </g>
    <g id="xtick_6">
     <g id="line2d_11">
      <g>
       <use style="stroke:#000000;stroke-width:0.5;" x="50.363915" xlink:href="#m9dd08c99c4" y="86.76"/>
      </g>
     </g>
     <g id="line2d_12">
      <g>
       <use style="stroke:#000000;stroke-width:0.5;" x="50.363915" xlink:href="#md1a030bfc4" y="3.6"/>
      </g>
     </g>
    </g>
    <g id="xtick_7">
     <g id="line2d_13">
      <g>
       <use style="stroke:#000000;stroke-width:0.5;" x="60.50937" xlink:href="#m9dd08c99c4" y="86.76"/>
      </g>
     </g>
     <g id="line2d_14">
      <g>
       <use style="stroke:#000000;stroke-width:0.5;" x="60.50937" xlink:href="#md1a030bfc4" y="3.6"/>
      </g>
     </g>
    </g>
    <g id="xtick_8">
     <g id="line2d_15">
      <g>
       <use style="stroke:#000000;stroke-width:0.5;" x="70.654824" xlink:href="#m9dd08c99c4" y="86.76"/>
      </g>
     </g>
     <g id="line2d_16">
      <g>
       <use style="stroke:#000000;stroke-width:0.5;" x="70.654824" xlink:href="#md1a030bfc4" y="3.6"/>
      </g>
     </g>
    </g>
    <g id="xtick_9">
     <g id="line2d_17">
      <g>
       <use style="stroke:#000000;stroke-width:0.5;" x="90.945734" xlink:href="#m9dd08c99c4" y="86.76"/>
      </g>
     </g>
     <g id="line2d_18">
      <g>
       <use style="stroke:#000000;stroke-width:0.5;" x="90.945734" xlink:href="#md1a030bfc4" y="3.6"/>
      </g>
     </g>
    </g>
    <g id="xtick_10">
     <g id="line2d_19">
      <g>
       <use style="stroke:#000000;stroke-width:0.5;" x="101.091188" xlink:href="#m9dd08c99c4" y="86.76"/>
      </g>
     </g>
     <g id="line2d_20">
      <g>
       <use style="stroke:#000000;stroke-width:0.5;" x="101.091188" xlink:href="#md1a030bfc4" y="3.6"/>
      </g>
     </g>
    </g>
    <g id="xtick_11">
     <g id="line2d_21">
      <g>
       <use style="stroke:#000000;stroke-width:0.5;" x="111.236643" xlink:href="#m9dd08c99c4" y="86.76"/>
      </g>
     </g>
     <g id="line2d_22">
      <g>
       <use style="stroke:#000000;stroke-width:0.5;" x="111.236643" xlink:href="#md1a030bfc4" y="3.6"/>
      </g>
     </g>
    </g>
   </g>
   <g id="matplotlib.axis_2">
    <g id="ytick_1">
     <g id="line2d_23">
      <defs>
       <path d="M 0 0 
L 3 0 
" id="m826991639c" style="stroke:#000000;stroke-width:0.5;"/>
      </defs>
      <g>
       <use style="stroke:#000000;stroke-width:0.5;" x="14.854824" xlink:href="#m826991639c" y="81.148383"/>
      </g>
     </g>
     <g id="line2d_24">
      <defs>
       <path d="M 0 0 
L -3 0 
" id="m8e9b6005f6" style="stroke:#000000;stroke-width:0.5;"/>
      </defs>
      <g>
       <use style="stroke:#000000;stroke-width:0.5;" x="126.454824" xlink:href="#m8e9b6005f6" y="81.148383"/>
      </g>
     </g>
     <g id="text_4">
      <!-- $\mathdefault{82}$ -->
      <g transform="translate(3.6 83.632795)scale(0.07 -0.07)">
       <defs>
        <path d="M 2502 2399 
C 2970 2680 3123 2910 3123 3338 
C 3123 4046 2566 4544 1760 4544 
C 960 4544 397 4046 397 3338 
C 397 2917 550 2687 1011 2399 
C 493 2150 237 1774 237 1276 
C 237 446 864 -128 1760 -128 
C 2656 -128 3283 447 3283 1270 
C 3283 1774 3027 2150 2502 2399 
z
M 1760 4044 
C 2240 4044 2547 3764 2547 3325 
C 2547 2904 2234 2624 1760 2624 
C 1286 2624 973 2904 973 3331 
C 973 3764 1286 4044 1760 4044 
z
M 1760 2149 
C 2323 2149 2707 1792 2707 1263 
C 2707 729 2323 372 1747 372 
C 1197 372 813 735 813 1263 
C 813 1792 1197 2149 1760 2149 
z
" id="NimbusSanL-Regu-38" transform="scale(0.015625)"/>
       </defs>
       <use transform="scale(0.996264)" xlink:href="#NimbusSanL-Regu-38"/>
       <use transform="translate(55.391677 0)scale(0.996264)" xlink:href="#NimbusSanL-Regu-32"/>
      </g>
     </g>
    </g>
    <g id="ytick_2">
     <g id="line2d_25">
      <g>
       <use style="stroke:#000000;stroke-width:0.5;" x="14.854824" xlink:href="#m826991639c" y="58.253168"/>
      </g>
     </g>
     <g id="line2d_26">
      <g>
       <use style="stroke:#000000;stroke-width:0.5;" x="126.454824" xlink:href="#m8e9b6005f6" y="58.253168"/>
      </g>
     </g>
     <g id="text_5">
      <!-- $\mathdefault{83}$ -->
      <g transform="translate(3.6 60.73758)scale(0.07 -0.07)">
       <defs>
        <path d="M 1414 2112 
L 1485 2112 
L 1722 2112 
C 2342 2112 2662 1830 2662 1284 
C 2662 712 2310 372 1722 372 
C 1107 372 806 681 768 1345 
L 205 1345 
C 230 978 294 740 403 534 
C 634 97 1082 -128 1702 -128 
C 2637 -128 3238 431 3238 1293 
C 3238 1872 3014 2194 2470 2381 
C 2893 2546 3104 2862 3104 3311 
C 3104 4082 2586 4544 1722 4544 
C 806 4544 320 4050 301 3095 
L 864 3095 
C 870 3366 896 3517 966 3655 
C 1094 3900 1376 4051 1728 4051 
C 2227 4051 2528 3760 2528 3287 
C 2528 2971 2413 2781 2163 2681 
C 2010 2618 1811 2592 1414 2592 
L 1414 2112 
z
" id="NimbusSanL-Regu-33" transform="scale(0.015625)"/>
       </defs>
       <use transform="scale(0.996264)" xlink:href="#NimbusSanL-Regu-38"/>
       <use transform="translate(55.391677 0)scale(0.996264)" xlink:href="#NimbusSanL-Regu-33"/>
      </g>
     </g>
    </g>
    <g id="ytick_3">
     <g id="line2d_27">
      <g>
       <use style="stroke:#000000;stroke-width:0.5;" x="14.854824" xlink:href="#m826991639c" y="35.357953"/>
      </g>
     </g>
     <g id="line2d_28">
      <g>
       <use style="stroke:#000000;stroke-width:0.5;" x="126.454824" xlink:href="#m8e9b6005f6" y="35.357953"/>
      </g>
     </g>
     <g id="text_6">
      <!-- $\mathdefault{84}$ -->
      <g transform="translate(3.6 37.842365)scale(0.07 -0.07)">
       <use transform="scale(0.996264)" xlink:href="#NimbusSanL-Regu-38"/>
       <use transform="translate(55.391677 0)scale(0.996264)" xlink:href="#NimbusSanL-Regu-34"/>
      </g>
     </g>
    </g>
    <g id="ytick_4">
     <g id="line2d_29">
      <g>
       <use style="stroke:#000000;stroke-width:0.5;" x="14.854824" xlink:href="#m826991639c" y="12.462738"/>
      </g>
     </g>
     <g id="line2d_30">
      <g>
       <use style="stroke:#000000;stroke-width:0.5;" x="126.454824" xlink:href="#m8e9b6005f6" y="12.462738"/>
      </g>
     </g>
     <g id="text_7">
      <!-- $\mathdefault{85}$ -->
      <g transform="translate(3.6 14.94715)scale(0.07 -0.07)">
       <defs>
        <path d="M 3046 4544 
L 704 4544 
L 365 2086 
L 883 2086 
C 1146 2399 1363 2508 1715 2508 
C 2323 2508 2707 2092 2707 1421 
C 2707 768 2330 372 1715 372 
C 1222 372 922 621 787 1133 
L 224 1133 
C 301 762 365 582 499 415 
C 755 70 1216 -128 1728 -128 
C 2643 -128 3283 537 3283 1497 
C 3283 2394 2688 3008 1818 3008 
C 1498 3008 1242 2925 979 2732 
L 1158 3987 
L 3046 3987 
L 3046 4544 
z
" id="NimbusSanL-Regu-35" transform="scale(0.015625)"/>
       </defs>
       <use transform="scale(0.996264)" xlink:href="#NimbusSanL-Regu-38"/>
       <use transform="translate(55.391677 0)scale(0.996264)" xlink:href="#NimbusSanL-Regu-35"/>
      </g>
     </g>
    </g>
    <g id="ytick_5">
     <g id="line2d_31">
      <defs>
       <path d="M 0 0 
L 1.5 0 
" id="me038d474da" style="stroke:#000000;stroke-width:0.5;"/>
      </defs>
      <g>
       <use style="stroke:#000000;stroke-width:0.5;" x="14.854824" xlink:href="#me038d474da" y="85.727426"/>
      </g>
     </g>
     <g id="line2d_32">
      <defs>
       <path d="M 0 0 
L -1.5 0 
" id="m90116ccdca" style="stroke:#000000;stroke-width:0.5;"/>
      </defs>
      <g>
       <use style="stroke:#000000;stroke-width:0.5;" x="126.454824" xlink:href="#m90116ccdca" y="85.727426"/>
      </g>
     </g>
    </g>
    <g id="ytick_6">
     <g id="line2d_33">
      <g>
       <use style="stroke:#000000;stroke-width:0.5;" x="14.854824" xlink:href="#me038d474da" y="76.56934"/>
      </g>
     </g>
     <g id="line2d_34">
      <g>
       <use style="stroke:#000000;stroke-width:0.5;" x="126.454824" xlink:href="#m90116ccdca" y="76.56934"/>
      </g>
     </g>
    </g>
    <g id="ytick_7">
     <g id="line2d_35">
      <g>
       <use style="stroke:#000000;stroke-width:0.5;" x="14.854824" xlink:href="#me038d474da" y="71.990297"/>
      </g>
     </g>
     <g id="line2d_36">
      <g>
       <use style="stroke:#000000;stroke-width:0.5;" x="126.454824" xlink:href="#m90116ccdca" y="71.990297"/>
      </g>
     </g>
    </g>
    <g id="ytick_8">
     <g id="line2d_37">
      <g>
       <use style="stroke:#000000;stroke-width:0.5;" x="14.854824" xlink:href="#me038d474da" y="67.411254"/>
      </g>
     </g>
     <g id="line2d_38">
      <g>
       <use style="stroke:#000000;stroke-width:0.5;" x="126.454824" xlink:href="#m90116ccdca" y="67.411254"/>
      </g>
     </g>
    </g>
    <g id="ytick_9">
     <g id="line2d_39">
      <g>
       <use style="stroke:#000000;stroke-width:0.5;" x="14.854824" xlink:href="#me038d474da" y="62.832211"/>
      </g>
     </g>
     <g id="line2d_40">
      <g>
       <use style="stroke:#000000;stroke-width:0.5;" x="126.454824" xlink:href="#m90116ccdca" y="62.832211"/>
      </g>
     </g>
    </g>
    <g id="ytick_10">
     <g id="line2d_41">
      <g>
       <use style="stroke:#000000;stroke-width:0.5;" x="14.854824" xlink:href="#me038d474da" y="53.674125"/>
      </g>
     </g>
     <g id="line2d_42">
      <g>
       <use style="stroke:#000000;stroke-width:0.5;" x="126.454824" xlink:href="#m90116ccdca" y="53.674125"/>
      </g>
     </g>
    </g>
    <g id="ytick_11">
     <g id="line2d_43">
      <g>
       <use style="stroke:#000000;stroke-width:0.5;" x="14.854824" xlink:href="#me038d474da" y="49.095082"/>
      </g>
     </g>
     <g id="line2d_44">
      <g>
       <use style="stroke:#000000;stroke-width:0.5;" x="126.454824" xlink:href="#m90116ccdca" y="49.095082"/>
      </g>
     </g>
    </g>
    <g id="ytick_12">
     <g id="line2d_45">
      <g>
       <use style="stroke:#000000;stroke-width:0.5;" x="14.854824" xlink:href="#me038d474da" y="44.516039"/>
      </g>
     </g>
     <g id="line2d_46">
      <g>
       <use style="stroke:#000000;stroke-width:0.5;" x="126.454824" xlink:href="#m90116ccdca" y="44.516039"/>
      </g>
     </g>
    </g>
    <g id="ytick_13">
     <g id="line2d_47">
      <g>
       <use style="stroke:#000000;stroke-width:0.5;" x="14.854824" xlink:href="#me038d474da" y="39.936996"/>
      </g>
     </g>
     <g id="line2d_48">
      <g>
       <use style="stroke:#000000;stroke-width:0.5;" x="126.454824" xlink:href="#m90116ccdca" y="39.936996"/>
      </g>
     </g>
    </g>
    <g id="ytick_14">
     <g id="line2d_49">
      <g>
       <use style="stroke:#000000;stroke-width:0.5;" x="14.854824" xlink:href="#me038d474da" y="30.77891"/>
      </g>
     </g>
     <g id="line2d_50">
      <g>
       <use style="stroke:#000000;stroke-width:0.5;" x="126.454824" xlink:href="#m90116ccdca" y="30.77891"/>
      </g>
     </g>
    </g>
    <g id="ytick_15">
     <g id="line2d_51">
      <g>
       <use style="stroke:#000000;stroke-width:0.5;" x="14.854824" xlink:href="#me038d474da" y="26.199867"/>
      </g>
     </g>
     <g id="line2d_52">
      <g>
       <use style="stroke:#000000;stroke-width:0.5;" x="126.454824" xlink:href="#m90116ccdca" y="26.199867"/>
      </g>
     </g>
    </g>
    <g id="ytick_16">
     <g id="line2d_53">
      <g>
       <use style="stroke:#000000;stroke-width:0.5;" x="14.854824" xlink:href="#me038d474da" y="21.620824"/>
      </g>
     </g>
     <g id="line2d_54">
      <g>
       <use style="stroke:#000000;stroke-width:0.5;" x="126.454824" xlink:href="#m90116ccdca" y="21.620824"/>
      </g>
     </g>
    </g>
    <g id="ytick_17">
     <g id="line2d_55">
      <g>
       <use style="stroke:#000000;stroke-width:0.5;" x="14.854824" xlink:href="#me038d474da" y="17.041781"/>
      </g>
     </g>
     <g id="line2d_56">
      <g>
       <use style="stroke:#000000;stroke-width:0.5;" x="126.454824" xlink:href="#m90116ccdca" y="17.041781"/>
      </g>
     </g>
    </g>
    <g id="ytick_18">
     <g id="line2d_57">
      <g>
       <use style="stroke:#000000;stroke-width:0.5;" x="14.854824" xlink:href="#me038d474da" y="7.883695"/>
      </g>
     </g>
     <g id="line2d_58">
      <g>
       <use style="stroke:#000000;stroke-width:0.5;" x="126.454824" xlink:href="#m90116ccdca" y="7.883695"/>
      </g>
     </g>
    </g>
   </g>
   <g id="line2d_59">
    <path clip-path="url(#pfa34cd4861)" d="M 19.927552 82.98 
L 40.218461 23.498231 
L 60.50937 11.730091 
L 80.800279 41.035966 
L 101.091188 8.707922 
L 121.382097 7.38 
" style="fill:none;stroke:#0c5da5;stroke-linecap:square;"/>
    <defs>
     <path d="M 0 -1.5 
L -1.5 1.5 
L 1.5 1.5 
z
" id="m79b49d2071" style="stroke:#0c5da5;stroke-linejoin:miter;"/>
    </defs>
    <g clip-path="url(#pfa34cd4861)">
     <use style="fill:#0c5da5;stroke:#0c5da5;stroke-linejoin:miter;" x="19.927552" xlink:href="#m79b49d2071" y="82.98"/>
     <use style="fill:#0c5da5;stroke:#0c5da5;stroke-linejoin:miter;" x="40.218461" xlink:href="#m79b49d2071" y="23.498231"/>
     <use style="fill:#0c5da5;stroke:#0c5da5;stroke-linejoin:miter;" x="60.50937" xlink:href="#m79b49d2071" y="11.730091"/>
     <use style="fill:#0c5da5;stroke:#0c5da5;stroke-linejoin:miter;" x="80.800279" xlink:href="#m79b49d2071" y="41.035966"/>
     <use style="fill:#0c5da5;stroke:#0c5da5;stroke-linejoin:miter;" x="101.091188" xlink:href="#m79b49d2071" y="8.707922"/>
     <use style="fill:#0c5da5;stroke:#0c5da5;stroke-linejoin:miter;" x="121.382097" xlink:href="#m79b49d2071" y="7.38"/>
    </g>
   </g>
   <g id="line2d_60">
    <path clip-path="url(#pfa34cd4861)" d="M 19.927552 75.332998 
L 40.218461 24.826154 
L 60.50937 26.795142 
L 80.800279 29.450987 
L 101.091188 27.985694 
L 121.382097 32.97685 
" style="fill:none;stroke:#00b945;stroke-linecap:square;"/>
    <defs>
     <path d="M 0 -1.5 
L -1.5 1.5 
L 1.5 1.5 
z
" id="m0126d2a076" style="stroke:#00b945;stroke-linejoin:miter;"/>
    </defs>
    <g clip-path="url(#pfa34cd4861)">
     <use style="fill:#00b945;stroke:#00b945;stroke-linejoin:miter;" x="19.927552" xlink:href="#m0126d2a076" y="75.332998"/>
     <use style="fill:#00b945;stroke:#00b945;stroke-linejoin:miter;" x="40.218461" xlink:href="#m0126d2a076" y="24.826154"/>
     <use style="fill:#00b945;stroke:#00b945;stroke-linejoin:miter;" x="60.50937" xlink:href="#m0126d2a076" y="26.795142"/>
     <use style="fill:#00b945;stroke:#00b945;stroke-linejoin:miter;" x="80.800279" xlink:href="#m0126d2a076" y="29.450987"/>
     <use style="fill:#00b945;stroke:#00b945;stroke-linejoin:miter;" x="101.091188" xlink:href="#m0126d2a076" y="27.985694"/>
     <use style="fill:#00b945;stroke:#00b945;stroke-linejoin:miter;" x="121.382097" xlink:href="#m0126d2a076" y="32.97685"/>
    </g>
   </g>
   <g id="line2d_61">
    <path clip-path="url(#pfa34cd4861)" d="M 19.927552 64.572247 
L 40.218461 18.369703 
L 60.50937 33.801078 
L 80.800279 43.417068 
L 101.091188 44.744991 
L 121.382097 49.736148 
" style="fill:none;stroke:#ff9500;stroke-linecap:square;"/>
    <defs>
     <path d="M 0 -1.5 
L -1.5 1.5 
L 1.5 1.5 
z
" id="ma5276c0167" style="stroke:#ff9500;stroke-linejoin:miter;"/>
    </defs>
    <g clip-path="url(#pfa34cd4861)">
     <use style="fill:#ff9500;stroke:#ff9500;stroke-linejoin:miter;" x="19.927552" xlink:href="#ma5276c0167" y="64.572247"/>
     <use style="fill:#ff9500;stroke:#ff9500;stroke-linejoin:miter;" x="40.218461" xlink:href="#ma5276c0167" y="18.369703"/>
     <use style="fill:#ff9500;stroke:#ff9500;stroke-linejoin:miter;" x="60.50937" xlink:href="#ma5276c0167" y="33.801078"/>
     <use style="fill:#ff9500;stroke:#ff9500;stroke-linejoin:miter;" x="80.800279" xlink:href="#ma5276c0167" y="43.417068"/>
     <use style="fill:#ff9500;stroke:#ff9500;stroke-linejoin:miter;" x="101.091188" xlink:href="#ma5276c0167" y="44.744991"/>
     <use style="fill:#ff9500;stroke:#ff9500;stroke-linejoin:miter;" x="121.382097" xlink:href="#ma5276c0167" y="49.736148"/>
    </g>
   </g>
   <g id="patch_3">
    <path d="M 14.854824 86.76 
L 14.854824 3.6 
" style="fill:none;stroke:#000000;stroke-linecap:square;stroke-linejoin:miter;stroke-width:0.5;"/>
   </g>
   <g id="patch_4">
    <path d="M 126.454824 86.76 
L 126.454824 3.6 
" style="fill:none;stroke:#000000;stroke-linecap:square;stroke-linejoin:miter;stroke-width:0.5;"/>
   </g>
   <g id="patch_5">
    <path d="M 14.854824 86.76 
L 126.454824 86.76 
" style="fill:none;stroke:#000000;stroke-linecap:square;stroke-linejoin:miter;stroke-width:0.5;"/>
   </g>
   <g id="patch_6">
    <path d="M 14.854824 3.6 
L 126.454824 3.6 
" style="fill:none;stroke:#000000;stroke-linecap:square;stroke-linejoin:miter;stroke-width:0.5;"/>
   </g>
  </g>
 </g>
 <defs>
  <clipPath id="pfa34cd4861">
   <rect height="83.16" width="111.6" x="14.854824" y="3.6"/>
  </clipPath>
 </defs>
</svg>
